PathFileType	4	(X/Y/Z)	/Users/whiskymisky/masters/Sports2D_results/trial_4_Sports2D/trial_4_Sports2D_m_person00.trc
DataRate	CameraRate	NumFrames	NumMarkers	Units	OrigDataRate	OrigDataStartFrame	OrigNumFrames
50	50	11	22	m	50	823	1098
Frame#	Time	Hip			RHip			RKnee			RAnkle			RBigToe			RSmallToe			RHeel			LHip			LKnee			LAnkle			LBigToe			LSmallToe			LHeel			Neck			Head			Nose			RShoulder			RElbow			RWrist			LShoulder			LElbow			LWrist		
		X1	Y1	Z1	X2	Y2	Z2	X3	Y3	Z3	X4	Y4	Z4	X5	Y5	Z5	X6	Y6	Z6	X7	Y7	Z7	X8	Y8	Z8	X9	Y9	Z9	X10	Y10	Z10	X11	Y11	Z11	X12	Y12	Z12	X13	Y13	Z13	X14	Y14	Z14	X15	Y15	Z15	X16	Y16	Z16	X17	Y17	Z17	X18	Y18	Z18	X19	Y19	Z19	X20	Y20	Z20	X21	Y21	Z21	X22	Y22	Z22
823	16.46	4.278224178632432	0.817269533378449	0.0301	4.148790888356014	0.8271975890676225	0.0301	3.8494692395985437	0.4666329750095465	0.129	3.621254919155811	0.15594593529261075	0.023	3.561250575513321	0.05240412650956654	0.2179	3.5049324763213496	0.09469445315599671	0.1804	3.6217815984749437	0.11490417975796269	-0.0119	4.366653825650287	0.7277568241593948	0.0301	4.24253566982979	0.3079915518641468	0.129	4.1552795007368974	-0.027833291209387278	0.023	4.1472689010800305	-0.1488158436803797	0.2179	4.205972129278891	-0.14997179434176044	0.1804	4.120429035850872	-0.057824487693611475	-0.0119	4.5409340882656375	1.3431970013915953	0.0008	4.689835705997854	1.5709549306647772	0.0655	4.674305992721298	1.4138713442662076	0.1076	4.328416842893555	1.3583398060322067	-0.01275	4.039541462654107	1.3974836087872349	0.0702	4.0553852658962715	1.623726665317253	0.1076	4.6980647391737635	1.2019996070309262	-0.01275	4.919115073052341	1.041027455068377	0.0702	4.995379476795248	1.264506003125315	0.1076
824	16.48	4.279560802070756	0.8170309332488124	0.0301	4.148957898851447	0.82736079537095	0.0301	3.8490568239143945	0.46642151168275425	0.129	3.622127857170402	0.15629464859785105	0.023	3.561033220027066	0.05237011240080712	0.2179	3.5053104752717155	0.09503825191528144	0.1804	3.622431153180369	0.1152126969624715	-0.0119	4.366519538689734	0.7269189596280228	0.0301	4.243209584804217	0.30750633067754807	0.129	4.1553482033071685	-0.027742790303447194	0.023	4.146716140513556	-0.1493514448788241	0.2179	4.205618172126949	-0.15023453353950972	0.1804	4.120127350203125	-0.05765996559699661	-0.0119	4.539824326506338	1.3426834516826045	0.0008	4.689538139446789	1.5703354578296498	0.0655	4.67399695480793	1.413096160662597	0.1076	4.328192096587913	1.3586541881020242	-0.01275	4.038568185223643	1.3965831474322472	0.0702	4.054254862596847	1.623393017912658	0.1076	4.698104656387308	1.201600345377796	-0.01275	4.919168273877215	1.0397208497113317	0.0702	4.993013863692115	1.265872162925449	0.1076
825	16.5	4.280748454838999	0.8171677490718103	0.0301	4.149312883383426	0.8277313785057335	0.0301	3.849159272338798	0.4663219977288739	0.129	3.6229167415096786	0.15657233956663724	0.023	3.5608369653520096	0.052031681741400014	0.2179	3.50517485542332	0.09502207663949884	0.1804	3.6231932975915906	0.1148811183547894	-0.0119	4.366802404995426	0.726498062537378	0.0301	4.243593010428536	0.30667503130512946	0.129	4.1555071198798155	-0.02773095955661644	0.023	4.146104340222344	-0.14994875816687414	0.2179	4.2056215606621965	-0.1504798793389398	0.1804	4.119520159183811	-0.05728413144558985	-0.0119	4.538966560630761	1.342278285042632	0.0008	4.689638913658007	1.5700444137133382	0.0655	4.674121816395612	1.4122283606739683	0.1076	4.3280066219030875	1.3594016940878009	-0.01275	4.037940206141141	1.395904764158934	0.0702	4.053509325262794	1.6230912593497093	0.1076	4.698419393041168	1.2009651442426457	-0.01275	4.918755488655474	1.0381312675522423	0.0702	4.9925291124005104	1.2663057002532094	0.1076
826	16.52	4.2814173218618485	0.8175635160005361	0.0301	4.149659480124418	0.8283923751112251	0.0301	3.849508707773198	0.466436384224804	0.129	3.623124308714142	0.15636582900998966	0.023	3.560365797047687	0.05146831990773475	0.2179	3.5046268649086683	0.09453052346468585	0.1804	3.623763924476302	0.11381701280150754	-0.0119	4.367530956098007	0.7265688128467378	0.0301	4.243500695195279	0.3058551759098739	0.129	4.155728698144576	-0.02748538707967339	0.023	4.146088230138748	-0.150393335478948	0.2179	4.20614663543627	-0.1504056108091663	0.1804	4.11856961011999	-0.05638093773615554	-0.0119	4.538677580338595	1.3421092150114329	0.0008	4.689857239699114	1.570190604661563	0.0655	4.674670739166916	1.4116228961839947	0.1076	4.32787772049798	1.360308864625927	-0.01275	4.037777592939999	1.395410024488913	0.0702	4.053367856218564	1.6228800482426322	0.1076	4.698953542245563	1.2004019256084657	-0.01275	4.918501666258271	1.0365682778901417	0.0702	4.9943435275949675	1.2657586856207164	0.1076
827	16.54	4.281409935517022	0.8179799152162385	0.0301	4.14972006752421	0.8291673468117131	0.0301	3.8499234563168896	0.46673504945324107	0.129	3.622612542866533	0.15576182522576051	0.023	3.5595937139663527	0.05088773722788891	0.2179	3.503931355524669	0.09364131442669722	0.1804	3.6240406612427365	0.11238116704534361	-0.0119	4.368542218618922	0.7267813000733985	0.0301	4.242987638874947	0.30531490230469466	0.129	4.156045407104786	-0.02705967333292224	0.023	4.146917928576462	-0.15072558983498538	0.2179	4.207052206539001	-0.15026078084770692	0.1804	4.117437999398025	-0.055390516226586174	-0.0119	4.539045053765577	1.3421014598602317	0.0008	4.689922648527952	1.5706807880415719	0.0655	4.675556277907202	1.4113510229697412	0.1076	4.327833806817918	1.3610296267035453	-0.01275	4.038011364430202	1.3949031229066713	0.0702	4.053647180288272	1.622673621988837	0.1076	4.6994605916755114	1.2002870552283538	-0.01275	4.918699376536913	1.0353428765755774	0.0702	4.997553808623702	1.2645449028722486	0.1076
828	16.56	4.280743249100338	0.8180309159376641	0.0301	4.149352544241849	0.8295978113772776	0.0301	3.850409084054365	0.46692497227928953	0.129	3.6217155225340587	0.15518847614790912	0.023	3.558981859343926	0.05046667232951091	0.2179	3.5034579378243382	0.0925661776532519	0.1804	3.6240084425703523	0.11118734072465976	-0.0119	4.369516639507688	0.72660635750714	0.0301	4.242249476627532	0.3050969056329032	0.129	4.156455369964317	-0.02705075213102885	0.023	4.148164344307152	-0.15108238198134147	0.2179	4.207940829857456	-0.1505398813325441	0.1804	4.11646876954407	-0.055252455525298616	-0.0119	4.539872366372765	1.3421207181180956	0.0008	4.689757445977876	1.5713458523079171	0.0655	4.676558556255365	1.411308218618495	0.1076	4.32796851654416	1.361254734850686	-0.01275	4.038466399014025	1.3942414454504406	0.0702	4.053882283581384	1.622298692824195	0.1076	4.699702593117099	1.2006352807084681	-0.01275	4.919177050111922	1.0345479539153597	0.0702	5.0009181600410795	1.2627812239370484	0.1076
829	16.580000000000002	4.279580979458342	0.817348411118357	0.0301	4.148723124971899	0.8293479118951338	0.0301	3.8510007519199347	0.4666302952177837	0.129	3.620931439661224	0.15487584284051326	0.023	3.559065367374353	0.05031654951163554	0.2179	3.5035334700055043	0.09160392491122281	0.1804	3.6235037204675775	0.11064324035950655	-0.0119	4.37012761088596	0.7258355589400484	0.0301	4.241552230523091	0.30511449293217846	0.129	4.156909684320974	-0.028037210225572484	0.023	4.149052288468821	-0.15148559967879058	0.2179	4.208386181150837	-0.15134237596290476	0.1804	4.1159173797957935	-0.05651352239053225	-0.0119	4.540812163779183	1.3421234535039976	0.0008	4.68944238449981	1.5720544734957462	0.0655	4.677313441261726	1.4114208012735117	0.1076	4.328397673506758	1.3608225393046933	-0.01275	4.038963153068037	1.3933683345606107	0.0702	4.053612283877866	1.621689718240688	0.1076	4.699659793174123	1.2010710186071885	-0.01275	4.919676214786676	1.0339808185796078	0.0702	5.003861268115255	1.2601624384427585	0.1076
830	16.6	4.278329542790575	0.8161213916862053	0.0301	4.148281245705427	0.8285925792274688	0.0301	3.851617275162651	0.4659262228827351	0.129	3.6206581613474014	0.1547631399255283	0.023	3.5598002857656263	0.05046886421854408	0.2179	3.5041187997227787	0.09104331412711762	0.1804	3.6224206178185603	0.11076343832588613	-0.0119	4.370281217571263	0.7248762821037444	0.0301	4.24115687227866	0.30535361052416576	0.129	4.157225510883275	-0.029958906728927776	0.023	4.149153107111849	-0.15190973186318205	0.2179	4.208099518945994	-0.1523397465133666	0.1804	4.115615720052625	-0.05889073633425248	-0.0119	4.541555947893069	1.3421312859910977	0.0008	4.689036324625295	1.5727631779776248	0.0655	4.677444335390269	1.4116530258653721	0.1076	4.329076413506083	1.3598748136794163	-0.01275	4.039358524319555	1.3920685067625558	0.0702	4.0527378177445925	1.6209095795780613	0.1076	4.699526582972299	1.2013344647167912	-0.01275	4.919980667718003	1.0333845554600385	0.0702	5.006700437344645	1.2562515016819524	0.1076
831	16.62	4.277505951829146	0.8150305172522514	0.0301	4.148380386127525	0.8277924684028026	0.0301	3.8520151438476167	0.46530287457229746	0.129	3.6210412538266548	0.1547737307329337	0.023	3.560553634199947	0.05086476437252424	0.2179	3.50474309633952	0.09100151959063991	0.1804	3.621089895874581	0.11126975433194321	-0.0119	4.370099554477586	0.7243581228104005	0.0301	4.241205190105703	0.30580808682633576	0.129	4.157134116349685	-0.032136112467144526	0.023	4.14875872357753	-0.15230367488917712	0.2179	4.207090603564405	-0.15312909955893197	0.1804	4.115139182942444	-0.061418246323100195	-0.0119	4.541955791380225	1.3421423731431172	0.0008	4.688472425994923	1.573526609128952	0.0655	4.67680394940324	1.4119056039570648	0.1076	4.3298164740775675	1.3588545332585393	-0.01275	4.039555050220328	1.390032328900009	0.0702	4.051565621921128	1.6199343612641766	0.1076	4.6995389288393214	1.201460876284579	-0.01275	4.919824637655374	1.0326067471254938	0.0702	5.01015170215162	1.251102329207166	0.1076
832	16.64	4.277399900828397	0.8144860735565693	0.0301	4.148890846270764	0.8271928177783294	0.0301	3.8518986420078765	0.4649906625860876	0.129	3.6218538144428956	0.15490897007902024	0.023	3.560675612152629	0.05140651566371163	0.2179	3.504934776100512	0.09142567293360751	0.1804	3.6201647662657885	0.11173762789636699	-0.0119	4.369696687624131	0.7245230700265785	0.0301	4.241675911647957	0.3062636107515218	0.129	4.1565579316456	-0.03380612062123886	0.023	4.14854075249568	-0.15247980894947258	0.2179	4.205807201525201	-0.15345156517772807	0.1804	4.114306659559828	-0.06293456446629378	-0.0119	4.542011188568412	1.3421534163319815	0.0008	4.687683839897283	1.5744679017210255	0.0655	4.675675805798319	1.4120240096547874	0.1076	4.330497704925167	1.3581828833531935	-0.01275	4.039446135453173	1.3873050681229988	0.0702	4.05033105852865	1.6185571933504048	0.1076	4.6997629107735035	1.201432527204852	-0.01275	4.919061712602075	1.03132064670247	0.0702	5.01434140890648	1.2455651910175032	0.1076
833	16.66	4.277966199980163	0.8143833065591946	0.0301	4.149344719397346	0.8267769875938796	0.0301	3.851168605300445	0.46476606548538246	0.129	3.6225892194494542	0.15507707341692933	0.023	3.5599314638837356	0.051977915695877064	0.2179	3.504630804096139	0.09221842079077694	0.1804	3.6201202747518213	0.11178481326482247	-0.0119	4.369147421773822	0.7251746197500272	0.0301	4.242441123685493	0.30641277616005597	0.129	4.1557543051462265	-0.03450714653898177	0.023	4.148957282227755	-0.15218995547154432	0.2179	4.204934107821698	-0.1532499544374588	0.1804	4.113336944375068	-0.06271747574655738	-0.0119	4.541751206241637	1.3422276982339763	0.0008	4.686823149000489	1.5755983882033422	0.0655	4.674683216791244	1.4119619293221137	0.1076	4.331075506005998	1.3580117126285194	-0.01275	4.038861660589819	1.3843815519174243	0.0702	4.0488538758593196	1.6166381304838275	0.1076	4.700010191712974	1.2010929718659675	-0.01275	4.917705046441829	1.0289565574197352	0.0702	5.018395521523646	1.2406525377817823	0.1076
